# xmcd CD database file
#
# Track frame offsets:
#	150
#	16618
#	39278
#	61361
#	77955
#	104971
#	118817
#	139991
#	160753
#	178433
#
# Disc length: 2672 seconds
#
# Revision: 0
# Processed by: cddbd v1.4PL0 Copyright (c) Steve Scherf et al.
# Submitted via: CDex 1.50
#
DISCID=8b0a6e0a
DTITLE=Debbie Davies - Loose Tonight
DYEAR=1994
DGENRE=Blues
TTITLE0=I Don't Want No Man
TTITLE1=Wrong Man For Me
TTITLE2=Where The Blues Come To Die
TTITLE3=Give It Up
TTITLE4=Can't Go On This Way
TTITLE5=You Were Wrong
TTITLE6=This Man Is Killin' Me
TTITLE7=I Get The Blues So Easy
TTITLE8=I Like the Life
TTITLE9=A Mother's Blues
EXTD=YEAR: 1994
EXTT0=
EXTT1=
EXTT2=
EXTT3=
EXTT4=
EXTT5=
EXTT6=
EXTT7=
EXTT8=
EXTT9=
PLAYORDER=
